<svg width="1000" height="1000" viewBox="0 0 1000 1000" fill="none" xmlns="http://www.w3.org/2000/svg">
<rect width="1000" height="1000" rx="222" fill="url(#paint0_linear_1_11)"/>
<path d="M288.639 713.385C254.532 713.385 223.553 707.532 195.702 695.826C167.851 684.121 144.844 667.067 126.68 644.665L198.729 559.599C210.838 575.543 223.553 587.652 236.873 595.926C250.193 603.999 264.32 608.035 279.255 608.035C298.225 608.035 312.655 602.284 322.545 590.78C332.635 579.276 337.681 562.425 337.681 540.225V339.819H176.63V237.8H468.459V532.051C468.459 592.798 453.121 638.207 422.445 668.278C391.768 698.349 347.166 713.385 288.639 713.385Z" fill="white"/>
<path d="M551 328.363C551 378.345 510.482 418.863 460.5 418.863C410.518 418.863 370 378.345 370 328.363C370 278.382 410.518 237.863 460.5 237.863C510.482 237.863 551 278.382 551 328.363Z" fill="white"/>
<path d="M860 705.363C860 755.345 819.482 795.863 769.5 795.863C719.518 795.863 679 755.345 679 705.363C679 655.382 719.518 614.863 769.5 614.863C819.482 614.863 860 655.382 860 705.363Z" fill="white"/>
<path d="M446.122 766.108L612.459 405.141L674.896 191L800.259 260.267L643.678 615.38L572.948 830.497L446.122 766.108Z" fill="white"/>
<defs>
<linearGradient id="paint0_linear_1_11" x1="2.76448e-05" y1="-582" x2="500" y2="1000" gradientUnits="userSpaceOnUse">
<stop stop-color="#222222"/>
<stop offset="1"/>
</linearGradient>
</defs>
</svg>
